<?xml version="1.0" standalone="no"?>
<!DOCTYPE svg PUBLIC "-//W3C//DTD SVG 20010904//EN"
 "http://www.w3.org/TR/2001/REC-SVG-20010904/DTD/svg10.dtd">
<svg version="1.0" xmlns="http://www.w3.org/2000/svg"
 width="2150.000000pt" height="668.000000pt" viewBox="0 0 2150.000000 668.000000"
 preserveAspectRatio="xMidYMid meet">

<g transform="translate(0.000000,668.000000) scale(0.100000,-0.100000)"
fill="#454ADE" stroke="none">
<path d="M961 6455 c-99 -22 -159 -44 -255 -93 -254 -130 -430 -357 -494 -636
-14 -64 -16 -282 -19 -2078 -2 -1103 1 -2154 6 -2335 8 -310 10 -332 34 -398
107 -305 314 -513 622 -623 69 -25 74 -25 555 -34 267 -5 1324 -7 2350 -5
2068 6 1897 0 2063 72 263 113 446 311 544 588 25 70 26 82 33 432 10 445 11
3562 1 4040 l-7 350 -37 99 c-108 294 -323 498 -637 603 l-85 28 -2305 2
c-1949 2 -2315 0 -2369 -12z m2739 -1165 c304 -8 331 -10 425 -35 347 -92 634
-353 735 -670 34 -107 40 -357 11 -477 -48 -202 -108 -309 -268 -478 l-90 -95
-339 -5 c-187 -3 -344 -8 -350 -12 -19 -12 -48 -81 -117 -278 -36 -102 -68
-193 -72 -202 -8 -21 -38 -24 -53 -5 -17 20 -66 154 -222 602 -78 226 -160
447 -181 493 -45 98 -126 189 -202 227 -45 22 -64 25 -156 25 -90 0 -114 -4
-157 -24 -128 -59 -172 -128 -334 -518 -87 -211 -100 -235 -138 -249 -42 -17
-391 -6 -403 12 -5 8 -9 368 -9 835 0 641 3 824 13 837 11 15 42 17 272 20
627 6 1335 5 1635 -3z m-686 -2020 c270 -784 275 -794 413 -861 161 -80 389
-30 483 106 40 59 48 77 141 345 53 152 85 231 100 243 19 15 53 17 368 17
342 0 348 0 371 -22 46 -43 111 -222 147 -403 23 -120 23 -353 0 -448 -83
-336 -367 -627 -727 -745 -196 -64 -410 -75 -1556 -76 -784 -1 -944 1 -957 13
-16 12 -17 84 -17 857 0 753 2 844 16 858 13 14 54 16 282 17 147 1 310 4 362
8 l95 6 27 55 c15 30 70 162 124 292 62 151 103 239 113 241 9 2 24 -4 33 -12
10 -9 92 -230 182 -491z"/>
<path d="M12020 4504 c-74 -12 -150 -26 -167 -29 l-33 -6 0 -857 c0 -471 4
-896 9 -943 11 -105 39 -168 101 -230 82 -82 225 -133 399 -141 l75 -3 27 155
c34 189 33 180 9 180 -10 0 -44 9 -74 20 -61 23 -108 69 -124 122 -7 21 -12
344 -15 878 -3 465 -8 853 -12 863 -9 22 -26 21 -195 -9z"/>
<path d="M13840 4504 c-74 -12 -149 -26 -166 -29 l-31 -5 -5 -336 c-3 -184 -8
-338 -12 -341 -3 -3 -38 4 -78 17 -90 28 -287 39 -381 21 -210 -41 -391 -211
-462 -434 -38 -121 -48 -206 -43 -377 5 -140 8 -164 37 -249 41 -122 89 -200
171 -281 80 -79 151 -122 267 -164 l88 -31 245 1 c223 0 257 3 380 27 74 15
149 31 165 35 l30 8 -2 1060 c-2 582 -5 1069 -8 1082 -7 27 -17 27 -195 -4z
m-360 -1018 c41 -8 92 -21 113 -29 l37 -16 0 -394 0 -395 -25 -6 c-50 -13
-239 -8 -288 8 -144 44 -225 179 -235 387 -12 266 70 421 237 449 66 11 78 11
161 -4z"/>
<path d="M18010 4514 c-41 -7 -85 -16 -97 -19 l-23 -5 1 -443 c1 -243 4 -676
8 -962 9 -579 9 -584 77 -663 62 -73 151 -111 296 -126 66 -7 62 -13 78 114
10 86 6 95 -49 103 -54 7 -117 51 -134 95 -12 31 -16 189 -22 980 l-8 942 -26
-1 c-14 -1 -60 -7 -101 -15z"/>
<path d="M11062 4469 c-35 -20 -63 -46 -83 -76 -26 -42 -29 -55 -29 -130 0
-95 11 -124 65 -171 63 -56 89 -64 184 -60 78 3 90 6 133 35 119 83 133 259
28 363 -52 52 -100 70 -186 70 -47 0 -70 -6 -112 -31z"/>
<path d="M7615 4303 c-66 -7 -227 -32 -230 -35 -2 -2 -5 -434 -7 -961 -3 -844
-1 -958 12 -962 8 -2 69 -12 135 -22 155 -22 744 -26 840 -5 193 42 312 99
412 198 109 106 153 219 153 389 0 213 -77 354 -242 440 -37 20 -68 38 -68 41
0 3 33 38 74 77 41 41 86 96 102 127 28 53 29 61 29 190 l0 136 -37 75 c-59
119 -159 203 -306 256 -139 50 -178 55 -512 58 -173 1 -333 1 -355 -2z m649
-359 c115 -35 170 -126 145 -242 -15 -72 -41 -106 -101 -135 -73 -36 -155 -47
-345 -47 l-163 0 0 219 c0 200 2 220 18 225 9 3 100 3 202 2 142 -3 199 -8
244 -22z m52 -787 c117 -38 175 -115 176 -230 0 -70 -23 -134 -62 -176 -33
-33 -112 -67 -202 -85 -78 -16 -316 -22 -390 -10 l-38 7 0 259 0 260 233 -4
c179 -4 244 -9 283 -21z"/>
<path d="M14695 4299 c-38 -4 -95 -12 -125 -16 l-55 -8 -3 -983 -2 -982 135 0
135 0 0 370 c0 289 3 370 13 370 135 3 452 24 521 35 187 30 325 93 426 195
107 109 150 225 150 410 0 111 -19 198 -59 278 -90 177 -289 294 -564 331 -90
13 -469 12 -572 0z m405 -219 c102 -5 209 -16 238 -24 106 -29 207 -109 245
-194 41 -94 39 -252 -4 -353 -28 -65 -108 -137 -185 -167 -32 -13 -67 -28 -77
-33 -15 -8 -365 -28 -494 -29 l-43 0 0 405 0 405 68 0 c37 -1 150 -5 252 -10z"/>
<path d="M18932 3810 c-143 -38 -249 -119 -302 -232 -27 -58 -30 -72 -30 -168
0 -123 14 -162 82 -235 63 -69 110 -98 302 -184 313 -140 366 -185 366 -309 0
-133 -117 -188 -377 -180 -116 4 -154 10 -242 36 -57 17 -108 29 -112 27 -4
-3 -14 -40 -24 -82 -9 -43 -19 -86 -21 -96 -6 -21 30 -38 150 -70 71 -19 107
-22 286 -22 167 0 217 4 269 18 146 41 241 113 292 220 27 57 29 71 29 173 0
104 -2 115 -31 172 -55 111 -165 185 -451 302 -215 88 -268 139 -268 259 0 63
1 65 44 107 69 65 118 77 295 71 108 -4 164 -10 215 -26 48 -14 72 -17 77 -10
14 23 41 180 33 188 -56 52 -437 79 -582 41z"/>
<path d="M20398 3815 c-190 -48 -361 -198 -439 -385 -53 -127 -72 -242 -66
-410 5 -164 26 -260 81 -376 61 -130 193 -246 349 -308 137 -55 470 -57 652
-4 93 27 93 26 75 146 -9 58 -16 82 -26 82 -8 0 -47 -10 -87 -21 -101 -30
-352 -38 -451 -15 -127 30 -207 91 -269 204 -29 53 -67 186 -67 234 l0 28 515
0 515 0 0 28 c-1 102 -22 293 -40 364 -53 206 -180 356 -355 419 -79 28 -300
36 -387 14z m260 -208 c135 -35 226 -165 247 -349 l6 -58 -375 0 -376 0 0 24
c0 51 51 185 89 236 49 65 129 126 189 144 60 19 154 20 220 3z"/>
<path d="M9275 3458 c8 -594 13 -707 31 -768 55 -187 194 -328 370 -376 46
-12 108 -16 284 -16 230 1 293 6 486 44 l111 21 6 285 c4 157 7 485 7 729 l0
443 -215 0 -215 0 0 -584 c0 -579 0 -585 -20 -591 -35 -11 -213 -9 -255 3
-100 29 -149 92 -165 213 -5 41 -10 239 -10 440 0 201 -3 400 -6 442 l-7 77
-203 0 -204 0 5 -362z"/>
<path d="M10980 3065 l0 -755 210 0 210 0 0 755 0 755 -210 0 -210 0 0 -755z"/>
<path d="M16225 3448 c9 -594 13 -675 36 -758 54 -196 174 -320 364 -376 49
-14 96 -17 265 -17 173 1 228 5 355 27 83 15 156 28 163 31 9 3 12 157 12 725
l0 720 -130 0 -130 0 0 -634 0 -634 -101 -12 c-145 -18 -310 -10 -374 19 -91
40 -144 110 -180 237 -15 50 -19 132 -25 519 -5 253 -8 470 -9 483 -1 22 -3
22 -126 22 l-125 0 5 -352z"/>
</g>
</svg>
